PathFileType	4	(X/Y/Z)	D:\Share\Shared_Data\Ergonomics\Sit To Stand Pertubation\S1\Unperturbed_NoHarness.trc
DataRate	CameraRate	NumFrames	NumMarkers	Units	OrigDataRate	OrigDataStartFrame	OrigNumFrames	
100	100	9	18	m	100	3141	261
Frame#	Time	R_Thigh_Med			R_ASIS			R_Pelvis			V_Sacral			L_Pelvis			L_ASIS			Clavical			R_Acromium			L_Acromium			Sternum			Torso			R_Thigh_Lat			R_Thigh			R_Shank_Med			R_Shank_Lat			R_Shank			R_Heel			R_Toe			
		X1	Y1	Z1	X2	Y2	Z2	X3	Y3	Z3	X4	Y4	Z4	X5	Y5	Z5	X6	Y6	Z6	X7	Y7	Z7	X8	Y8	Z8	X9	Y9	Z9	X10	Y10	Z10	X11	Y11	Z11	X12	Y12	Z12	X13	Y13	Z13	X14	Y14	Z14	X15	Y15	Z15	X16	Y16	Z16	X17	Y17	Z17	X18	Y18	Z18	

3141	31.4	0.40889734	0.3997218	0.0080508442	0.35607001	0.83257288	0.088675087	0.28191864	0.85075696	0.12572459	0.16863879	0.84582446	-0.01083427	0.29682706	0.84186761	-0.15973253	0.36658688	0.84288177	-0.11227661	0.46261276	1.1669558	-0.017519983	0.42163818	1.2523964	0.13170941	0.35779779	1.2190922	-0.20872008	0.45313376	1.1836355	0.084531883	0.45682452	1.1762136	-0.074266647	0.42986322	0.4192536	0.12755672	0.43128915	0.60350739	0.081897781	0.32385501	0.091805664	0.064646858	0.29985544	0.098907333	0.14602721	0.37068936	0.29900763	0.15232828	0.24523831	0.034002796	0.092885437	0.44980472	0.043155758	0.12031538
3142	31.41	0.4071705	0.40035751	0.0083689175	0.3583602	0.83561945	0.088443932	0.2844559	0.85350116	0.12554309	0.17158127	0.84880762	-0.010970984	0.29899753	0.8448324	-0.16037093	0.36915082	0.84601599	-0.11247019	0.4624725	1.1711626	-0.017730593	0.42085583	1.2562771	0.13152174	0.35726431	1.2225391	-0.20903932	0.45283673	1.1877535	0.084363838	0.45659335	1.1802908	-0.074529579	0.4284986	0.41993018	0.12782438	0.43200439	0.60420636	0.081695847	0.3236438	0.091991737	0.064751717	0.29972519	0.09894381	0.1461277	0.36962256	0.29935818	0.15263106	0.2452227	0.034002003	0.092904617	0.44983246	0.04334832	0.12044907
3143	31.42	0.40542715	0.40099936	0.0087020159	0.36063235	0.83861389	0.088223938	0.28693704	0.8561557	0.12534997	0.17448972	0.85173407	-0.011198126	0.29897079	0.84930627	-0.1611389	0.37169275	0.84906238	-0.11265041	0.46236374	1.1752585	-0.017933912	0.42004544	1.2600463	0.13133301	0.35674377	1.2258516	-0.20935297	0.45252756	1.191757	0.084202469	0.4563425	1.1842472	-0.074784073	0.42708774	0.42060535	0.12812517	0.43265106	0.60485864	0.081480057	0.32343027	0.092184921	0.064860306	0.29959756	0.0989813	0.14623273	0.36853119	0.29971143	0.15294939	0.24520874	0.034001717	0.092922096	0.44986722	0.04352956	0.12056665
3144	31.43	0.40367477	0.40164536	0.0090559654	0.36292886	0.84157672	0.088021339	0.28936304	0.85873828	0.12518239	0.17736665	0.85458832	-0.011500266	0.29741452	0.85479718	-0.16206068	0.37420129	0.85201447	-0.11281553	0.46227704	1.1792411	-0.018131588	0.41920206	1.2637041	0.13114114	0.3562326	1.2290243	-0.20965936	0.45220511	1.1956464	0.084046944	0.45607776	1.1880817	-0.075033913	0.4256311	0.42127457	0.12846362	0.43322977	0.60546124	0.081256462	0.32321741	0.092385452	0.064972694	0.29947055	0.099019516	0.14634283	0.36741754	0.30006848	0.15328458	0.24519643	0.034002205	0.092937653	0.44990106	0.043683819	0.12066253
3145	31.44	0.40191739	0.40229327	0.0094350739	0.36528439	0.84452863	0.087842308	0.29173694	0.86127997	0.12509888	0.18021472	0.85735944	-0.011862596	0.29538904	0.86053455	-0.16312372	0.37666174	0.85486609	-0.11296554	0.46219696	1.183108	-0.018324806	0.41832709	1.2672489	0.13094569	0.35572769	1.2320549	-0.20995729	0.45186816	1.1994235	0.083896606	0.45580151	1.1917927	-0.075282005	0.42413199	0.42193695	0.12883792	0.43374454	0.60601733	0.081037872	0.32300742	0.092593811	0.065088173	0.29934137	0.099058273	0.14645752	0.36628436	0.30042987	0.15363705	0.24518556	0.034003647	0.092951477	0.44992731	0.043801613	0.12073537
3146	31.45	0.4001582	0.40294232	0.0098389645	0.36771194	0.84748456	0.087692726	0.29406366	0.86382117	0.12517616	0.18303575	0.86004065	-0.012272049	0.29380176	0.86587231	-0.16425943	0.37905817	0.85761151	-0.11310238	0.4621066	1.1868564	-0.018513729	0.41742789	1.2706781	0.13074831	0.35522687	1.2349443	-0.21024695	0.4515159	1.2030891	0.083750725	0.45551627	1.1953787	-0.075530243	0.42259579	0.42259375	0.1292411	0.43420468	0.60653723	0.080849373	0.32280118	0.092810265	0.065205711	0.29920691	0.09909787	0.14657506	0.36513409	0.30079553	0.15400536	0.24517569	0.034006298	0.092964241	0.44994266	0.043882797	0.12078804
3147	31.46	0.39840359	0.40359515	0.010260989	0.37019193	0.85044702	0.087577934	0.29634937	0.8664032	0.12549563	0.18583055	0.86262958	-0.012717619	0.29312531	0.87048822	-0.1653669	0.3813779	0.86024744	-0.11322942	0.46199176	1.1904838	-0.018697577	0.41651331	1.2739902	0.13055064	0.35472943	1.237696	-0.21053046	0.4511488	1.2066437	0.08360836	0.45522885	1.1988395	-0.075779678	0.4210289	0.42324673	0.12966449	0.43462582	0.60703668	0.080729767	0.32259802	0.093034416	0.065324425	0.29906442	0.09913913	0.14669273	0.36396838	0.30116437	0.15438586	0.24516624	0.03401054	0.09297683	0.44994739	0.043933487	0.12082516
3148	31.47	0.39666541	0.40425748	0.010689548	0.37268024	0.85339886	0.087501076	0.2986022	0.86905365	0.12611655	0.18859929	0.86512628	-0.013190239	0.29346158	0.87432495	-0.16636455	0.38361679	0.8627738	-0.11335017	0.46184137	1.1939884	-0.018875231	0.41558957	1.277187	0.13035304	0.35423734	1.2403163	-0.21081067	0.45076834	1.2100862	0.083468597	0.4549505	1.2021772	-0.076030586	0.41943835	0.42389728	0.13010033	0.43503049	0.60753113	0.080722374	0.32239645	0.093264824	0.06544384	0.2989126	0.099182976	0.14680768	0.36278867	0.30153497	0.15477364	0.24515675	0.034016556	0.092990082	0.44994354	0.043961742	0.12085122
3149	31.48	0.39495688	0.40493588	0.011112296	0.37513647	0.85629565	0.087456726	0.3008317	0.87176538	0.12703805	0.19134192	0.86753284	-0.013682147	0.2946983	0.87747083	-0.16721591	0.38578305	0.8651955	-0.11346694	0.46164963	1.1973688	-0.019045574	0.41466031	1.2802714	0.13015474	0.3537558	1.2428123	-0.21108958	0.45037637	1.2134161	0.083330772	0.45469064	1.205396	-0.076282356	0.4178317	0.42454599	0.13054279	0.43544464	0.60802576	0.080854958	0.32219479	0.093499039	0.065563515	0.29875067	0.099229607	0.14691759	0.36159631	0.30190518	0.15516379	0.24514687	0.03402383	0.093004585	0.44993396	0.043974228	0.1208695
